<svg width="22" height="23" viewBox="0 0 22 23" fill="none" xmlns="http://www.w3.org/2000/svg">
<path d="M15.17 11.5L21.4244 5.44107C22.1919 4.69756 22.1919 3.49207 21.4244 2.74795L20.0344 1.40139C19.2669 0.657871 18.0225 0.657871 17.2544 1.40139L11 7.46031L4.74563 1.40139C3.97813 0.657871 2.73375 0.657871 1.96563 1.40139L0.575625 2.74795C-0.191875 3.49146 -0.191875 4.69695 0.575625 5.44107L6.83 11.5L0.575625 17.5589C-0.191875 18.3024 -0.191875 19.5079 0.575625 20.2521L1.96563 21.5986C2.73312 22.3421 3.97813 22.3421 4.74563 21.5986L11 15.5397L17.2544 21.5986C18.0219 22.3421 19.2669 22.3421 20.0344 21.5986L21.4244 20.2521C22.1919 19.5085 22.1919 18.303 21.4244 17.5589L15.17 11.5Z" fill="#FF0606"/>
</svg>
