<svg width="29" height="26" viewBox="0 0 29 26" fill="none" xmlns="http://www.w3.org/2000/svg">
<path d="M27.4871 3.09191L20.1641 0.528356C20.1327 0.517416 20.0994 0.513502 20.0663 0.51689C20.0333 0.520278 20.0014 0.530885 19.9729 0.547962C19.9444 0.565038 19.9201 0.588166 19.9015 0.615708C19.883 0.643249 19.8707 0.674532 19.8656 0.707341C19.6537 1.9767 18.9985 3.12976 18.0164 3.96147C17.0344 4.79318 15.7892 5.24962 14.5023 5.24962C13.2154 5.24962 11.9702 4.79318 10.9881 3.96147C10.0061 3.12976 9.35086 1.9767 9.13898 0.707341C9.13401 0.673986 9.12166 0.642161 9.10283 0.614187C9.08399 0.586214 9.05915 0.562798 9.03011 0.545647C9.00108 0.528497 8.96858 0.518045 8.93499 0.515053C8.9014 0.512062 8.86756 0.516607 8.83595 0.528356L1.51289 3.09191C1.30792 3.16366 1.13553 3.30663 1.02711 3.49479C0.918681 3.68295 0.881427 3.90379 0.922126 4.11711L1.86406 9.10148C1.90031 9.29146 1.99639 9.46487 2.13825 9.59633C2.28011 9.7278 2.46031 9.81043 2.6525 9.83215L5.42109 10.1448C5.53411 10.1575 5.6382 10.2123 5.7127 10.2983C5.7872 10.3842 5.82666 10.495 5.82324 10.6087L5.40806 24.2534C5.40256 24.4293 5.44837 24.6029 5.53989 24.7532C5.63142 24.9035 5.76471 25.0238 5.92349 25.0996C6.05548 25.1593 6.19894 25.1892 6.34377 25.1874H22.6563C22.8011 25.1892 22.9446 25.1593 23.0765 25.0996C23.2353 25.0238 23.3686 24.9035 23.4601 24.7532C23.5517 24.6029 23.5975 24.4293 23.592 24.2534L23.1768 10.6087C23.1734 10.495 23.2128 10.3842 23.2873 10.2983C23.3618 10.2123 23.4659 10.1575 23.5789 10.1448L26.3475 9.83215C26.5397 9.81043 26.7199 9.7278 26.8618 9.59633C27.0036 9.46487 27.0997 9.29146 27.136 9.10148L28.0779 4.11711C28.1186 3.90379 28.0814 3.68295 27.9729 3.49479C27.8645 3.30663 27.6921 3.16366 27.4871 3.09191Z" fill="#22668A"/>
</svg>
