<svg width="175" height="114" viewBox="0 0 175 114" fill="none" xmlns="http://www.w3.org/2000/svg">
<path d="M101.678 12.3225C99.3635 9.99014 96.6098 8.14 93.5759 6.87922C90.5419 5.61843 87.288 4.97205 84.0025 4.9775C80.7163 4.97236 77.4617 5.61886 74.427 6.87961C71.3923 8.14035 68.6377 9.99032 66.3225 12.3225C56.575 22.0675 56.575 37.93 66.3225 47.6775C68.6377 50.0103 71.3927 51.8607 74.4279 53.1214C77.4632 54.3822 80.7183 55.0284 84.005 55.0225C87.2903 55.0283 90.5441 54.3823 93.5781 53.1219C96.612 51.8616 99.3658 50.0119 101.68 47.68C111.428 37.935 111.428 22.0725 101.678 12.3225ZM84.4525 10H83.555C83.7075 9.9975 83.8525 9.9775 84.005 9.9775C84.1575 9.9775 84.3 9.9975 84.4525 10ZM99.6075 42.5H94L90.855 48.79C88.6611 49.6005 86.3414 50.0177 84.0025 50.0225C81.6593 50.0182 79.3353 49.6001 77.1375 48.7875L74 42.525H68.4125C66.3511 39.9622 64.957 36.9284 64.355 33.695L69 27.5L65.96 21.4175C66.93 19.354 68.2485 17.4731 69.8575 15.8575C72.1095 13.5976 74.8697 11.9098 77.9075 10.935L84 15L90.095 10.9375C93.1319 11.913 95.8918 13.5998 98.145 15.8575C99.7523 17.4712 101.07 19.3494 102.04 21.41L99 27.5L103.645 33.695C103.046 36.918 101.659 39.9428 99.6075 42.5Z" fill="#22668A"/>
<path d="M75.25 27.5L79 37.5H89L92.75 27.5L84 21.25L75.25 27.5Z" fill="#22668A"/>
<path d="M12.132 95.764C12.132 97.42 11.952 98.812 11.592 99.94C11.232 101.068 10.572 101.92 9.612 102.496C8.652 103.072 7.272 103.36 5.472 103.36C4.644 103.36 3.792 103.288 2.916 103.144C2.04 103.012 1.398 102.892 0.99 102.784L1.098 97.978C1.446 98.05 1.842 98.146 2.286 98.266C2.742 98.386 3.246 98.446 3.798 98.446C4.998 98.446 5.808 98.128 6.228 97.492C6.66 96.844 6.876 95.8 6.876 94.36V76.972H12.132V95.764ZM21.0544 94.9C21.0424 96.328 21.3844 97.462 22.0804 98.302C22.7764 99.142 23.7544 99.562 25.0144 99.562C25.9144 99.562 26.7004 99.37 27.3724 98.986C28.0564 98.602 28.5304 97.972 28.7944 97.096H33.5284C33.3244 98.416 32.7964 99.544 31.9444 100.48C31.1044 101.416 30.0844 102.13 28.8844 102.622C27.6844 103.114 26.4364 103.36 25.1404 103.36C23.2924 103.36 21.6724 102.976 20.2804 102.208C18.8884 101.428 17.8024 100.33 17.0224 98.914C16.2424 97.498 15.8524 95.83 15.8524 93.91C15.8524 92.05 16.2064 90.376 16.9144 88.888C17.6224 87.388 18.6484 86.206 19.9924 85.342C21.3484 84.466 22.9744 84.028 24.8704 84.028C26.7664 84.028 28.3564 84.43 29.6404 85.234C30.9364 86.026 31.9084 87.136 32.5564 88.564C33.2164 89.98 33.5464 91.618 33.5464 93.478V94.9H21.0544ZM21.0364 91.768H28.6324C28.6324 90.64 28.3204 89.68 27.6964 88.888C27.0724 88.096 26.1304 87.7 24.8704 87.7C24.0544 87.7 23.3584 87.898 22.7824 88.294C22.2184 88.69 21.7864 89.2 21.4864 89.824C21.1864 90.436 21.0364 91.084 21.0364 91.768ZM37.1953 103V84.388H42.2533V88.798C42.6973 87.37 43.4233 86.218 44.4313 85.342C45.4393 84.466 46.6813 84.028 48.1573 84.028C48.5533 84.028 48.8233 84.064 48.9673 84.136V89.14C48.8593 89.104 48.7273 89.08 48.5713 89.068C48.4273 89.044 48.2953 89.026 48.1753 89.014C46.0993 88.834 44.6233 89.11 43.7473 89.842C42.8833 90.574 42.4513 91.564 42.4513 92.812V103H37.1953ZM59.112 103.36C57.804 103.36 56.556 103.15 55.368 102.73C54.18 102.298 53.166 101.626 52.326 100.714C51.486 99.802 50.958 98.608 50.742 97.132H55.296C55.524 98.128 56.028 98.818 56.808 99.202C57.6 99.574 58.356 99.76 59.076 99.76C60.084 99.76 60.894 99.604 61.506 99.292C62.13 98.968 62.442 98.476 62.442 97.816C62.442 97.312 62.256 96.91 61.884 96.61C61.524 96.31 60.924 96.082 60.084 95.926L56.808 95.242C55.164 94.894 53.838 94.306 52.83 93.478C51.834 92.638 51.33 91.45 51.318 89.914C51.306 88.234 51.966 86.836 53.298 85.72C54.642 84.592 56.586 84.028 59.13 84.028C61.422 84.028 63.252 84.538 64.62 85.558C66 86.566 66.702 87.982 66.726 89.806H62.334C62.202 89.086 61.842 88.534 61.254 88.15C60.678 87.754 59.952 87.556 59.076 87.556C58.164 87.556 57.414 87.718 56.826 88.042C56.238 88.366 55.944 88.858 55.944 89.518C55.944 90.01 56.184 90.4 56.664 90.688C57.144 90.964 57.888 91.204 58.896 91.408L61.92 92.092C63.3 92.428 64.35 92.92 65.07 93.568C65.802 94.216 66.294 94.9 66.546 95.62C66.81 96.328 66.942 96.964 66.942 97.528C66.942 99.388 66.216 100.828 64.764 101.848C63.312 102.856 61.428 103.36 59.112 103.36ZM75.9749 76.99V81.724H70.8629V76.99H75.9749ZM75.9209 84.388V103H70.8989V84.388H75.9209ZM81.8716 103V76.972H90.6736C92.5336 76.972 94.1896 77.284 95.6416 77.908C97.0936 78.532 98.2336 79.456 99.0616 80.68C99.9016 81.904 100.322 83.41 100.322 85.198C100.322 86.926 99.9316 88.402 99.1516 89.626C98.3836 90.838 97.3096 91.768 95.9296 92.416C94.5496 93.052 92.9476 93.37 91.1236 93.37H85.2916V103H81.8716ZM85.2736 90.562H91.0516C92.8276 90.562 94.2736 90.064 95.3896 89.068C96.5176 88.072 97.0816 86.716 97.0816 85C97.0816 83.272 96.5056 81.964 95.3536 81.076C94.2016 80.188 92.7136 79.744 90.8896 79.744H85.2736V90.562ZM105.923 94.468C105.923 95.644 106.115 96.712 106.499 97.672C106.895 98.62 107.489 99.376 108.281 99.94C109.085 100.504 110.087 100.786 111.287 100.786C112.475 100.786 113.495 100.51 114.347 99.958C115.211 99.406 115.763 98.608 116.003 97.564H119.153C118.925 98.824 118.421 99.886 117.641 100.75C116.861 101.614 115.919 102.268 114.815 102.712C113.711 103.144 112.559 103.36 111.359 103.36C109.619 103.36 108.089 102.982 106.769 102.226C105.449 101.47 104.417 100.384 103.673 98.968C102.929 97.552 102.557 95.854 102.557 93.874C102.557 91.918 102.893 90.202 103.565 88.726C104.237 87.25 105.209 86.098 106.481 85.27C107.765 84.442 109.307 84.028 111.107 84.028C113.735 84.028 115.751 84.862 117.155 86.53C118.559 88.186 119.261 90.424 119.261 93.244V94.468H105.923ZM105.941 92.218H116.057C116.057 90.622 115.649 89.278 114.833 88.186C114.017 87.094 112.769 86.548 111.089 86.548C109.925 86.548 108.959 86.83 108.191 87.394C107.423 87.946 106.853 88.66 106.481 89.536C106.109 90.4 105.929 91.294 105.941 92.218ZM130.546 103.36C128.122 103.36 126.202 102.532 124.786 100.876C123.382 99.22 122.68 96.802 122.68 93.622C122.68 90.718 123.316 88.396 124.588 86.656C125.872 84.904 127.774 84.028 130.294 84.028C131.47 84.028 132.472 84.22 133.3 84.604C134.14 84.988 134.812 85.438 135.316 85.954C135.832 86.47 136.192 86.932 136.396 87.34V76.252H139.744V103H137.206L136.846 99.184C136.69 99.664 136.396 100.234 135.964 100.894C135.532 101.554 134.884 102.13 134.02 102.622C133.156 103.114 131.998 103.36 130.546 103.36ZM131.14 100.804C133.024 100.804 134.368 100.234 135.172 99.094C135.988 97.942 136.396 96.064 136.396 93.46C136.372 91.288 135.964 89.608 135.172 88.42C134.38 87.22 133.06 86.62 131.212 86.62C129.688 86.62 128.44 87.166 127.468 88.258C126.508 89.338 126.028 91.072 126.028 93.46C126.028 95.788 126.46 97.594 127.324 98.878C128.2 100.162 129.472 100.804 131.14 100.804ZM149.16 76.99V80.446H145.758V76.99H149.16ZM149.088 84.388V103H145.866V84.388H149.088ZM160.093 103.36C158.281 103.36 156.805 102.886 155.665 101.938C154.525 100.99 153.955 99.664 153.955 97.96C153.955 95.896 154.675 94.36 156.115 93.352C157.555 92.344 159.865 91.804 163.045 91.732L166.375 91.642V90.184C166.375 89.044 166.027 88.144 165.331 87.484C164.647 86.812 163.591 86.476 162.163 86.476C161.095 86.488 160.153 86.746 159.337 87.25C158.521 87.742 157.999 88.54 157.771 89.644H154.837C154.933 87.832 155.641 86.446 156.961 85.486C158.281 84.514 160.069 84.028 162.325 84.028C164.749 84.028 166.561 84.538 167.761 85.558C168.973 86.578 169.579 88.06 169.579 90.004V103H166.735L166.501 99.508C165.769 100.96 164.851 101.968 163.747 102.532C162.643 103.084 161.425 103.36 160.093 103.36ZM161.101 100.966C161.929 100.966 162.745 100.768 163.549 100.372C164.365 99.976 165.037 99.472 165.565 98.86C166.093 98.236 166.363 97.576 166.375 96.88V93.694L163.603 93.748C161.467 93.784 159.865 94.102 158.797 94.702C157.729 95.29 157.195 96.268 157.195 97.636C157.195 98.692 157.555 99.514 158.275 100.102C159.007 100.678 159.949 100.966 161.101 100.966Z" fill="#22668A"/>
</svg>
